<svg xmlns="http://www.w3.org/2000/svg" width="1080" height="1080" viewBox="0 0 1080 1080" version="1.1"><path d="M 310 42.975 C 306.975 43.436, 298.875 45.028, 292 46.514 C 285.125 48, 275 50.999, 269.500 53.179 C 264 55.358, 257.025 58.325, 254 59.772 C 250.975 61.218, 246.250 63.826, 243.500 65.566 C 240.750 67.306, 237.083 69.578, 235.351 70.615 C 233.619 71.652, 228.894 75.010, 224.851 78.078 C 220.808 81.145, 213.870 87.220, 209.433 91.578 C 204.996 95.935, 199.371 101.921, 196.933 104.880 C 194.495 107.839, 189.875 114.139, 186.667 118.880 C 183.460 123.621, 178.232 132.675, 175.051 139 C 171.870 145.325, 168.039 154.325, 166.537 159 C 165.036 163.675, 163.426 168.850, 162.960 170.500 C 162.494 172.150, 161.640 175.300, 161.062 177.500 C 160.484 179.700, 159.333 186.191, 158.505 191.924 C 157.190 201.033, 157 242.359, 157 519.500 C 157 798.860, 157.182 837.954, 158.531 847.576 C 159.373 853.584, 160.543 860.300, 161.130 862.500 C 161.717 864.700, 164.146 872.350, 166.527 879.500 C 168.908 886.650, 173.548 897.537, 176.838 903.694 C 180.128 909.851, 184.971 917.951, 187.600 921.694 C 190.230 925.437, 195.550 932.279, 199.424 936.897 C 203.297 941.516, 210.374 948.716, 215.150 952.897 C 219.926 957.079, 226.008 962.122, 228.667 964.105 C 231.325 966.088, 236.425 969.473, 240 971.628 C 243.575 973.783, 249.650 977.079, 253.500 978.952 C 257.350 980.826, 261.625 982.783, 263 983.301 C 264.375 983.819, 266.657 984.842, 268.072 985.573 C 269.487 986.305, 272.637 987.556, 275.072 988.355 C 277.507 989.153, 282.425 990.513, 286 991.376 C 289.575 992.240, 295.650 993.716, 299.500 994.656 C 305.806 996.195, 316.250 996.400, 404.853 996.719 C 478.429 996.985, 503.558 996.782, 504.603 995.915 C 505.795 994.925, 505.993 936.970, 505.952 601.128 C 505.912 266.075, 505.693 206.012, 504.480 197.500 C 503.697 192, 502.651 185.250, 502.157 182.500 C 501.663 179.750, 500.540 174.575, 499.663 171 C 498.786 167.425, 497.180 161.922, 496.095 158.771 C 495.010 155.620, 492.820 150.220, 491.228 146.771 C 489.637 143.322, 487.516 138.588, 486.516 136.250 C 485.515 133.912, 484.315 132, 483.848 132 C 483.382 132, 483 131.519, 483 130.930 C 483 130.342, 481.650 127.898, 480 125.500 C 478.350 123.102, 477 120.864, 477 120.527 C 477 120.190, 475.087 117.390, 472.750 114.304 C 470.413 111.218, 467.107 106.849, 465.405 104.596 C 463.703 102.343, 457.739 96.122, 452.151 90.770 C 446.563 85.419, 440.756 80.260, 439.246 79.306 C 437.736 78.352, 434.852 76.205, 432.838 74.536 C 430.823 72.866, 427.448 70.601, 425.338 69.502 C 423.227 68.404, 420.915 66.951, 420.201 66.275 C 419.486 65.598, 415.436 63.306, 411.201 61.182 C 406.965 59.057, 401.250 56.495, 398.500 55.487 C 395.750 54.480, 393.050 53.361, 392.500 53 C 391.950 52.639, 389.445 51.586, 386.934 50.660 C 384.423 49.733, 375.873 47.580, 367.934 45.874 C 355.214 43.141, 351.244 42.735, 334.500 42.455 C 324.050 42.281, 313.025 42.515, 310 42.975 M 759 619.167 C 752.675 619.534, 744.575 620.272, 741 620.807 C 737.425 621.342, 731.674 622.520, 728.220 623.425 C 724.766 624.330, 720.941 625.458, 719.720 625.931 C 718.499 626.404, 715.475 627.341, 713 628.013 C 710.525 628.685, 706.025 630.173, 703 631.321 C 699.975 632.468, 693.009 635.608, 687.520 638.299 C 682.031 640.990, 676.185 644.161, 674.528 645.346 C 672.872 646.531, 669.196 648.902, 666.359 650.616 C 663.523 652.330, 660.594 654.244, 659.851 654.868 C 659.108 655.493, 655.809 658.140, 652.519 660.752 C 649.229 663.363, 643.802 668.088, 640.458 671.252 C 637.115 674.415, 631.728 680.571, 628.488 684.932 C 625.248 689.293, 620.464 696.829, 617.857 701.680 C 615.249 706.531, 612.224 712.750, 611.135 715.500 C 610.046 718.250, 607.928 723.650, 606.430 727.500 C 604.931 731.350, 603.359 735.850, 602.935 737.500 C 602.511 739.150, 601.223 743.650, 600.073 747.500 C 598.922 751.350, 597.536 756.975, 596.994 760 C 596.452 763.025, 595.592 767.300, 595.085 769.500 C 594.577 771.700, 593.258 777.775, 592.153 783 C 591.049 788.225, 589.215 801.500, 588.079 812.500 C 586.942 823.500, 585.562 835.875, 585.013 840 C 584.464 844.125, 583.498 858.075, 582.867 871 C 582.145 885.800, 581.959 908.568, 582.365 932.500 C 582.720 953.400, 583.396 975.821, 583.866 982.325 C 584.453 990.434, 585.182 994.611, 586.187 995.615 C 587.383 996.812, 594.139 997.239, 623.076 997.947 C 643.216 998.440, 673.170 998.436, 692.500 997.938 C 711.200 997.456, 731.450 996.583, 737.500 995.999 C 743.550 995.415, 752.550 994.455, 757.500 993.865 C 762.450 993.274, 769.425 992.423, 773 991.972 C 776.575 991.521, 782.892 990.701, 787.037 990.149 C 791.183 989.597, 795.908 988.862, 797.537 988.516 C 799.167 988.170, 802.525 987.421, 805 986.851 C 807.475 986.281, 810.400 985.437, 811.500 984.975 C 812.600 984.514, 814.850 983.942, 816.500 983.704 C 818.150 983.466, 823.058 982.503, 827.408 981.563 C 831.757 980.623, 837.832 978.946, 840.908 977.836 C 843.983 976.726, 851.450 974, 857.500 971.778 C 863.550 969.556, 873.016 965.298, 878.535 962.316 C 884.055 959.334, 891.255 954.896, 894.535 952.455 C 897.816 950.014, 903.786 944.750, 907.802 940.758 C 911.818 936.766, 916.993 931.026, 919.302 928.002 C 921.611 924.979, 924.407 921.497, 925.516 920.265 C 926.624 919.034, 928.424 916.333, 929.516 914.263 C 930.607 912.193, 932.325 909.600, 933.334 908.500 C 934.342 907.400, 938.422 899.750, 942.400 891.500 C 946.379 883.250, 950.234 874.475, 950.968 872 C 951.702 869.525, 953.399 864.125, 954.740 860 C 956.081 855.875, 957.580 850.250, 958.072 847.500 C 958.565 844.750, 959.646 837.100, 960.475 830.500 C 961.304 823.900, 961.972 813.775, 961.960 808 C 961.948 802.225, 961.275 792.325, 960.465 786 C 959.654 779.675, 958.575 772.250, 958.066 769.500 C 957.557 766.750, 956.173 761.575, 954.990 758 C 953.808 754.425, 952.234 749.241, 951.493 746.481 C 950.752 743.720, 948.499 737.870, 946.486 733.481 C 944.473 729.091, 941.244 722.350, 939.311 718.500 C 937.377 714.650, 934.783 710.150, 933.546 708.500 C 932.309 706.850, 930.565 704.080, 929.672 702.345 C 928.778 700.609, 927.474 698.584, 926.773 697.845 C 926.073 697.105, 923.534 693.914, 921.131 690.753 C 918.728 687.593, 912.653 680.840, 907.631 675.748 C 902.609 670.656, 895.050 663.707, 890.834 660.305 C 886.618 656.903, 879.193 651.555, 874.334 648.420 C 869.475 645.286, 861.225 640.625, 856 638.064 C 850.775 635.503, 844.025 632.468, 841 631.321 C 837.975 630.173, 833.475 628.660, 831 627.959 C 828.525 627.257, 824.025 625.900, 821 624.943 C 817.975 623.986, 813.025 622.731, 810 622.155 C 806.975 621.578, 801.350 620.636, 797.500 620.062 C 793.650 619.487, 786 618.901, 780.500 618.759 C 775 618.616, 765.325 618.800, 759 619.167" stroke="none" fill="#040404" fill-rule="evenodd"/></svg>