<svg xmlns="http://www.w3.org/2000/svg" width="1920" height="513" viewBox="0 0 1920 513" version="1.1"><path d="" stroke="none" fill="#080404" fill-rule="evenodd"/><path d="M 95.500 5.081 C 91.650 5.449, 86.025 6.312, 83 6.999 C 79.975 7.686, 74.125 9.574, 70 11.195 C 65.875 12.817, 60.475 15.314, 58 16.746 C 55.525 18.177, 50.453 21.772, 46.729 24.734 C 43.005 27.696, 37.093 33.476, 33.592 37.579 C 30.092 41.682, 25.604 48.128, 23.620 51.904 C 21.636 55.679, 18.669 62.758, 17.028 67.634 C 15.386 72.510, 13.592 79.650, 13.041 83.500 C 12.405 87.947, 12.040 150.500, 12.040 255 C 12.040 359.850, 12.404 422.038, 13.044 426.500 C 13.597 430.350, 15.448 437.550, 17.158 442.500 C 18.869 447.450, 21.169 453.300, 22.271 455.500 C 23.372 457.700, 25.648 461.525, 27.329 464 C 29.009 466.475, 32.435 470.922, 34.942 473.882 C 37.449 476.843, 42.875 481.948, 47 485.228 C 51.125 488.507, 58.550 493.158, 63.500 495.563 C 68.450 497.968, 76.550 500.963, 81.500 502.218 C 90.301 504.449, 91.652 504.500, 142.500 504.500 L 194.500 504.500 194.500 293.500 C 194.500 82.500, 194.500 82.500, 192.244 74 C 191.003 69.325, 188.210 61.783, 186.036 57.241 C 183.862 52.698, 180.699 46.969, 179.007 44.510 C 177.315 42.052, 173.409 37.315, 170.325 33.985 C 167.242 30.655, 162.083 25.925, 158.860 23.474 C 155.637 21.023, 150.638 17.694, 147.750 16.076 C 144.863 14.458, 139.531 12.025, 135.902 10.669 C 132.273 9.313, 125.973 7.510, 121.902 6.662 C 117.831 5.815, 111.800 4.961, 108.500 4.766 C 105.200 4.571, 99.350 4.713, 95.500 5.081 M 585.300 243.931 C 582.990 244.990, 578.490 247.639, 575.300 249.816 C 572.110 251.994, 566.318 257.089, 562.428 261.138 C 558.538 265.187, 553.436 271.346, 551.090 274.825 C 548.743 278.304, 545.626 283.704, 544.162 286.825 C 541.500 292.500, 541.500 292.500, 541.500 392.500 L 541.500 492.500 567.500 492.500 L 593.500 492.500 593.500 367.500 C 593.500 243.249, 593.488 242.499, 591.500 242.252 C 590.400 242.116, 587.610 242.871, 585.300 243.931 M 1536.102 243.645 C 1534.233 244.460, 1529.958 246.985, 1526.602 249.256 C 1523.246 251.528, 1516.988 256.990, 1512.696 261.394 C 1508.403 265.799, 1502.712 273.024, 1500.048 277.451 C 1497.384 281.878, 1494.259 288.585, 1493.102 292.355 C 1491.214 298.512, 1491 301.660, 1491 323.258 L 1491 347.304 1485.250 341.831 C 1482.088 338.820, 1478.150 335.500, 1476.500 334.452 C 1474.850 333.404, 1473.275 332.287, 1473 331.970 C 1472.725 331.654, 1470.925 330.439, 1469 329.270 C 1467.075 328.102, 1463.250 326.382, 1460.500 325.447 C 1457.750 324.513, 1452.125 323.160, 1448 322.440 C 1441.691 321.339, 1438.674 321.361, 1429 322.581 C 1422.675 323.379, 1416.466 324.474, 1415.203 325.016 C 1413.940 325.557, 1412.196 326, 1411.328 326 C 1410.460 326, 1407.106 327.186, 1403.875 328.637 C 1400.644 330.087, 1398 331.662, 1398 332.137 C 1398 332.611, 1397.438 333.004, 1396.750 333.010 C 1396.063 333.015, 1393.648 334.492, 1391.384 336.292 C 1389.120 338.092, 1384.730 342.476, 1381.627 346.033 C 1378.524 349.590, 1374.444 355.434, 1372.559 359.021 C 1370.674 362.607, 1368.492 367.557, 1367.710 370.021 C 1366.928 372.484, 1365.788 376.300, 1365.177 378.500 C 1364.565 380.700, 1363.601 384.885, 1363.033 387.799 C 1362.465 390.714, 1362.008 399.264, 1362.018 406.799 C 1362.029 414.337, 1362.699 424.245, 1363.509 428.825 C 1364.319 433.404, 1366.324 441.156, 1367.964 446.053 C 1369.605 450.950, 1372.084 456.757, 1373.474 458.958 C 1374.863 461.159, 1376.001 463.307, 1376.003 463.730 C 1376.005 464.154, 1378.834 467.871, 1382.291 471.992 C 1386.337 476.815, 1391.399 481.370, 1396.502 484.779 C 1402.134 488.542, 1407.188 490.915, 1413.964 492.980 C 1419.255 494.592, 1427.284 496.174, 1432 496.535 C 1436.675 496.893, 1443.875 496.710, 1448 496.129 C 1452.125 495.549, 1458.425 494.124, 1462 492.963 C 1465.575 491.802, 1471.445 489.120, 1475.045 487.003 C 1478.645 484.886, 1484.787 480.195, 1488.694 476.577 C 1492.601 472.960, 1496.054 470, 1496.366 470 C 1496.679 470, 1497.062 475.063, 1497.217 481.250 L 1497.500 492.500 1520.375 492.769 C 1536.407 492.958, 1543.660 492.697, 1544.625 491.897 C 1545.778 490.939, 1546 470.950, 1546 367.959 C 1546 300.422, 1545.727 244.452, 1545.393 243.582 C 1545.038 242.657, 1543.688 242.034, 1542.143 242.082 C 1540.689 242.126, 1537.971 242.830, 1536.102 243.645 M 1853.500 274.704 C 1851.300 275.606, 1847.025 277.908, 1844 279.819 C 1840.975 281.731, 1835.443 286.247, 1831.706 289.854 C 1827.969 293.462, 1822.556 300.033, 1819.677 304.457 C 1816.798 308.881, 1813.851 313.850, 1813.127 315.500 C 1812.403 317.150, 1811.066 320.525, 1810.155 323 C 1808.681 327.008, 1808.500 334.283, 1808.500 389.500 C 1808.500 439.364, 1808.770 452.381, 1809.880 456 C 1810.638 458.475, 1811.959 462.525, 1812.814 465 C 1813.669 467.475, 1815.589 471.300, 1817.080 473.500 C 1818.571 475.700, 1820.851 478.656, 1822.146 480.068 C 1823.441 481.481, 1826.373 484.074, 1828.662 485.832 C 1830.951 487.590, 1834.551 489.754, 1836.662 490.640 C 1838.773 491.526, 1843.650 493.174, 1847.500 494.302 C 1853.370 496.022, 1857.244 496.348, 1871.500 496.324 C 1883.625 496.303, 1890.794 495.806, 1896.500 494.591 C 1900.900 493.653, 1904.882 492.507, 1905.349 492.044 C 1905.816 491.581, 1906.041 483.079, 1905.849 473.150 C 1905.618 461.221, 1905.106 454.705, 1904.340 453.939 C 1903.460 453.060, 1902.010 453.156, 1898.340 454.337 C 1895.678 455.194, 1891.416 456.186, 1888.869 456.543 C 1886.322 456.900, 1881.597 456.649, 1878.369 455.986 C 1873.587 455.005, 1871.759 454.012, 1868.500 450.624 C 1865.903 447.925, 1864.061 444.800, 1863.250 441.719 C 1862.361 438.343, 1862 426.580, 1862 401.006 L 1862 365.041 1882.750 364.770 L 1903.500 364.500 1903.772 345.270 L 1904.043 326.041 1883.272 325.770 L 1862.500 325.500 1862 299.500 C 1861.518 274.426, 1861.429 273.492, 1859.500 273.282 C 1858.400 273.163, 1855.700 273.802, 1853.500 274.704 M 315.049 308.500 C 311.501 309.301, 305.651 310.907, 302.049 312.068 C 298.447 313.229, 291.157 316.637, 285.849 319.639 C 280.541 322.642, 273.566 327.355, 270.349 330.112 C 267.132 332.870, 263.248 336.560, 261.717 338.313 C 260.186 340.066, 257.117 344.557, 254.896 348.294 C 252.676 352.030, 249.499 359.005, 247.837 363.794 C 246.174 368.582, 243.938 376.325, 242.866 381 C 241.795 385.675, 240.304 392.875, 239.554 397 C 238.803 401.125, 237.412 413.191, 236.463 423.814 C 235.126 438.774, 234.839 449.773, 235.194 472.604 C 235.599 498.697, 235.847 502.276, 237.361 503.790 C 238.912 505.341, 242.349 505.495, 274.286 505.445 C 304.442 505.399, 311.955 505.076, 326.594 503.199 C 335.996 501.994, 345.896 500.562, 348.594 500.018 C 351.292 499.475, 357.325 498.165, 362 497.109 C 366.675 496.052, 373.875 493.840, 378 492.193 C 382.125 490.546, 388.350 487.582, 391.834 485.606 C 395.317 483.630, 399.511 480.962, 401.154 479.676 C 402.797 478.391, 407.281 473.553, 411.120 468.927 C 414.958 464.300, 420.028 456.687, 422.386 452.008 C 424.744 447.328, 427.845 439.900, 429.276 435.500 C 430.707 431.100, 432.356 424.264, 432.939 420.308 C 433.523 416.353, 434 409.914, 434 406 C 434 402.086, 433.523 395.647, 432.939 391.692 C 432.355 387.736, 430.952 381.575, 429.821 378 C 428.690 374.425, 425.608 367, 422.972 361.500 C 419.965 355.225, 415.818 348.680, 411.840 343.929 C 408.353 339.765, 403.179 334.302, 400.342 331.790 C 397.505 329.278, 393.230 325.881, 390.842 324.240 C 388.454 322.600, 382.900 319.389, 378.500 317.105 C 374.100 314.821, 366.450 311.792, 361.500 310.375 C 354.007 308.230, 349.904 307.735, 337 307.421 C 325.850 307.150, 319.690 307.452, 315.049 308.500 M 895.056 322.610 C 891.512 323.384, 885.272 325.669, 881.189 327.686 C 876.472 330.017, 871.504 333.568, 867.561 337.427 C 864.149 340.767, 860.124 345.193, 858.617 347.263 C 857.111 349.333, 854.854 353.383, 853.603 356.263 C 852.351 359.143, 850.789 363.525, 850.131 366 C 849.249 369.317, 849.009 386.538, 849.217 431.500 L 849.500 492.500 876 492.500 L 902.500 492.500 903.081 445 C 903.637 399.487, 903.752 397.252, 905.835 391.580 C 907.031 388.324, 909.125 383.756, 910.489 381.429 C 911.853 379.102, 914.937 375.465, 917.343 373.347 C 919.749 371.230, 923.918 368.708, 926.609 367.743 C 929.319 366.772, 934.309 365.992, 937.800 365.995 C 941.270 365.998, 945.312 366.634, 946.800 367.411 C 948.285 368.187, 950.705 370.099, 952.178 371.661 C 953.651 373.222, 955.901 376.975, 957.178 380 C 959.495 385.487, 959.501 385.621, 959.800 438.472 C 960.025 478.310, 960.397 491.633, 961.300 492.206 C 961.960 492.626, 973.601 492.976, 987.168 492.985 C 1000.736 492.993, 1012.548 492.727, 1013.418 492.393 C 1014.825 491.853, 1015.003 487.131, 1015.031 449.643 C 1015.048 426.464, 1015.498 404.140, 1016.031 400.034 C 1016.563 395.928, 1017.757 390.528, 1018.684 388.034 C 1019.611 385.540, 1021.648 381.601, 1023.212 379.280 C 1024.775 376.959, 1027.505 373.953, 1029.279 372.601 C 1031.052 371.249, 1034.677 369.210, 1037.334 368.071 C 1040.561 366.688, 1044.314 366, 1048.633 366 C 1052.256 366, 1056.287 366.620, 1057.800 367.411 C 1059.285 368.187, 1061.683 370.099, 1063.129 371.661 C 1064.574 373.222, 1066.458 376.075, 1067.315 378 C 1068.171 379.925, 1069.348 383.300, 1069.930 385.500 C 1070.609 388.064, 1070.991 407.897, 1070.994 440.731 C 1071 491.962, 1071 491.962, 1073.250 492.512 C 1074.487 492.815, 1086.750 492.936, 1100.500 492.781 L 1125.500 492.500 1125.803 432 C 1126.028 386.900, 1125.793 370.100, 1124.878 366 C 1124.203 362.975, 1122.623 358.122, 1121.366 355.216 C 1120.108 352.310, 1117.188 347.235, 1114.876 343.939 C 1112.463 340.498, 1107.843 335.849, 1104.026 333.019 C 1100.369 330.309, 1095.274 327.189, 1092.702 326.086 C 1090.129 324.984, 1084.370 323.388, 1079.902 322.541 C 1074.660 321.546, 1066.055 321.005, 1055.640 321.015 C 1044.765 321.025, 1037.379 321.525, 1033 322.549 C 1029.425 323.385, 1024.040 324.984, 1021.034 326.101 C 1018.028 327.219, 1012.628 330.095, 1009.034 332.491 C 1005.440 334.888, 1000.960 338.447, 999.077 340.400 C 995.654 343.952, 995.654 343.952, 991.077 339.214 C 988.560 336.608, 984.025 332.875, 981 330.917 C 977.975 328.959, 973.444 326.596, 970.931 325.665 C 968.418 324.734, 962.866 323.304, 958.593 322.486 C 952.913 321.400, 944.194 321.027, 926.162 321.100 C 909.007 321.170, 899.539 321.630, 895.056 322.610 M 1217.618 323.112 C 1215.482 323.614, 1211.143 325.405, 1207.975 327.094 C 1204.807 328.782, 1199.739 332.371, 1196.712 335.069 C 1193.685 337.767, 1188.957 343.017, 1186.205 346.737 C 1183.453 350.457, 1179.592 356.815, 1177.624 360.867 C 1175.656 364.920, 1173.752 369.870, 1173.393 371.867 C 1173.033 373.865, 1172.235 376.131, 1171.620 376.903 C 1170.908 377.796, 1170.377 385.441, 1170.162 397.903 C 1169.976 408.681, 1170.292 420.425, 1170.864 424 C 1171.436 427.575, 1172.341 432.811, 1172.874 435.636 C 1173.407 438.461, 1174.585 442.958, 1175.492 445.628 C 1176.399 448.299, 1178.504 453.042, 1180.171 456.170 C 1181.838 459.297, 1185.236 464.251, 1187.722 467.178 C 1190.208 470.105, 1194.775 474.660, 1197.871 477.300 C 1200.967 479.940, 1207.451 484.115, 1212.279 486.578 C 1217.715 489.351, 1225.140 492.060, 1231.779 493.693 C 1241.442 496.071, 1244.326 496.328, 1261 496.301 C 1275.962 496.278, 1281.604 495.852, 1290.500 494.075 C 1296.550 492.867, 1304.341 490.959, 1307.814 489.836 C 1312.774 488.232, 1314.346 487.227, 1315.147 485.147 C 1315.747 483.588, 1316.029 475.511, 1315.833 465.500 C 1315.650 456.150, 1315.137 447.939, 1314.693 447.254 C 1314.056 446.269, 1313.312 446.305, 1311.153 447.421 C 1309.649 448.199, 1304.837 449.984, 1300.459 451.389 C 1296.082 452.794, 1288.545 454.856, 1283.711 455.972 C 1277.986 457.293, 1271.413 458, 1264.856 458 C 1258.937 458, 1252.286 457.352, 1248.716 456.426 C 1245.376 455.561, 1240.538 453.786, 1237.965 452.482 C 1235.392 451.178, 1231.714 448.585, 1229.793 446.719 C 1227.872 444.853, 1225.097 440.785, 1223.628 437.679 C 1222.159 434.573, 1220.685 430.674, 1220.353 429.016 C 1219.750 426, 1219.750 426, 1270.340 426 C 1317.499 426, 1320.993 425.881, 1321.862 424.250 C 1322.428 423.188, 1322.499 410.899, 1322.041 393 C 1321.442 369.586, 1320.951 362.607, 1319.660 359.171 C 1318.765 356.790, 1316.563 352.065, 1314.766 348.671 C 1312.970 345.277, 1308.791 339.783, 1305.479 336.461 C 1301.841 332.812, 1296.894 329.156, 1292.979 327.224 C 1289.416 325.465, 1284.475 323.581, 1282 323.037 C 1279.525 322.494, 1264.900 322.083, 1249.500 322.125 C 1234.100 322.167, 1219.753 322.611, 1217.618 323.112 M 1659 323.502 C 1654.875 324.213, 1649.477 325.317, 1647.004 325.957 C 1644.530 326.597, 1638.680 329.166, 1634.004 331.665 C 1629.327 334.165, 1623.482 337.850, 1621.017 339.855 C 1618.551 341.860, 1613.983 346.152, 1610.865 349.393 C 1607.748 352.635, 1603.166 358.935, 1600.684 363.393 C 1598.202 367.852, 1595.202 374.650, 1594.018 378.500 C 1592.833 382.350, 1591.220 389.100, 1590.433 393.500 C 1589.646 397.900, 1589.003 405.325, 1589.003 410 C 1589.003 414.675, 1589.646 422.100, 1590.433 426.500 C 1591.220 430.900, 1592.829 437.592, 1594.009 441.371 C 1595.189 445.149, 1597.515 450.774, 1599.177 453.871 C 1600.840 456.967, 1604.056 461.923, 1606.325 464.885 C 1608.594 467.846, 1613.299 472.796, 1616.780 475.885 C 1620.261 478.973, 1625.672 482.969, 1628.804 484.765 C 1631.937 486.561, 1636.075 488.740, 1638 489.607 C 1639.925 490.473, 1646 492.343, 1651.500 493.762 C 1660.180 496.001, 1663.546 496.338, 1677 496.319 C 1689.462 496.302, 1694.264 495.869, 1701.500 494.115 C 1706.450 492.914, 1713.425 490.534, 1717 488.825 C 1720.575 487.116, 1725.833 484.231, 1728.684 482.414 C 1731.535 480.596, 1737.160 475.778, 1741.184 471.708 C 1745.444 467.398, 1750.327 461.102, 1752.873 456.635 C 1755.278 452.416, 1757.914 447.059, 1758.729 444.732 C 1759.545 442.404, 1761.059 436.450, 1762.093 431.500 C 1763.352 425.477, 1763.975 418.366, 1763.977 410 C 1763.980 401.557, 1763.352 394.417, 1762.044 388 C 1760.978 382.775, 1759.551 376.925, 1758.873 375 C 1758.195 373.075, 1756.371 369.343, 1754.820 366.706 C 1753.269 364.069, 1752 361.688, 1752 361.413 C 1752 361.139, 1750.245 358.571, 1748.100 355.707 C 1745.956 352.843, 1741.568 347.933, 1738.350 344.796 C 1735.133 341.658, 1728.675 336.820, 1724 334.043 C 1719.325 331.267, 1712.125 327.906, 1708 326.575 C 1703.875 325.244, 1696.980 323.670, 1692.678 323.078 C 1688.375 322.485, 1680.725 322.047, 1675.678 322.105 C 1670.630 322.163, 1663.125 322.792, 1659 323.502 M 638.683 326.650 C 638.307 327.026, 638.054 344.021, 638.120 364.417 C 638.186 384.813, 638.554 412.975, 638.938 427 C 639.465 446.225, 640.049 453.922, 641.314 458.280 C 642.236 461.460, 643.937 465.917, 645.095 468.186 C 646.252 470.455, 648.997 474.586, 651.195 477.366 C 653.392 480.146, 657.782 484.346, 660.950 486.700 C 664.117 489.054, 669.812 492.219, 673.604 493.734 C 680.500 496.488, 680.500 496.488, 718.500 496.494 C 756.500 496.500, 756.500 496.500, 763.682 493.689 C 767.632 492.142, 773.757 488.687, 777.292 486.011 C 780.828 483.334, 785.362 479.227, 787.367 476.884 C 789.373 474.540, 792.760 469.220, 794.892 465.061 C 797.025 460.903, 799.296 455.025, 799.939 452 C 800.778 448.054, 801.023 429.545, 800.804 386.500 L 800.500 326.500 774.500 326.500 L 748.500 326.500 747.949 373.500 C 747.469 414.557, 747.175 421.248, 745.626 426.414 C 744.650 429.666, 742.371 434.643, 740.560 437.473 C 738.750 440.304, 735.520 443.956, 733.384 445.590 C 731.248 447.224, 728.194 449.222, 726.599 450.031 C 724.634 451.026, 720.536 451.500, 713.904 451.500 C 704.140 451.500, 704.101 451.490, 700.636 448.132 C 698.725 446.280, 695.940 442.455, 694.447 439.632 C 691.733 434.500, 691.733 434.500, 691.116 380.500 L 690.500 326.500 664.933 326.233 C 650.871 326.087, 639.059 326.274, 638.683 326.650 M 1241 360.794 C 1238.034 361.810, 1234.427 364.409, 1230.419 368.418 C 1225.553 373.286, 1223.906 375.787, 1222.169 380.944 C 1220.976 384.488, 1220 388.201, 1220 389.194 C 1220 390.896, 1221.772 391, 1250.833 391 L 1281.665 391 1280.924 385.540 C 1280.517 382.537, 1279.079 377.668, 1277.729 374.720 C 1276.189 371.355, 1273.642 368.046, 1270.888 365.832 C 1268.474 363.892, 1264.165 361.561, 1261.312 360.652 C 1258.459 359.743, 1253.734 359.057, 1250.812 359.126 C 1247.890 359.195, 1243.475 359.946, 1241 360.794 M 1667.407 364.407 C 1664.606 365.087, 1660.781 366.592, 1658.907 367.751 C 1657.033 368.911, 1654.305 371.129, 1652.845 372.680 C 1651.384 374.231, 1648.828 378.039, 1647.165 381.142 C 1645.502 384.245, 1643.660 389.390, 1643.071 392.576 C 1642.482 395.761, 1642 403.398, 1642 409.547 C 1642 415.696, 1642.452 423.151, 1643.005 426.114 C 1643.558 429.076, 1645.392 434.323, 1647.080 437.774 C 1648.768 441.225, 1651.746 445.599, 1653.697 447.495 C 1655.649 449.390, 1659.328 451.964, 1661.873 453.215 C 1665.331 454.915, 1668.697 455.579, 1675.198 455.842 C 1681.373 456.093, 1685.321 455.722, 1688.808 454.564 C 1691.509 453.667, 1695.546 451.369, 1697.779 449.457 C 1700.013 447.545, 1703.136 443.848, 1704.720 441.240 C 1706.303 438.633, 1708.477 434.250, 1709.550 431.500 C 1711.203 427.262, 1711.500 423.984, 1711.500 410 C 1711.500 396.332, 1711.172 392.556, 1709.587 388 C 1708.534 384.975, 1706.421 380.465, 1704.891 377.977 C 1703.360 375.490, 1700.993 372.486, 1699.631 371.301 C 1698.268 370.116, 1695.977 368.376, 1694.538 367.433 C 1693.100 366.491, 1689.353 365.115, 1686.212 364.375 C 1683.070 363.636, 1678.700 363.062, 1676.500 363.101 C 1674.300 363.139, 1670.208 363.726, 1667.407 364.407 M 1447.479 364.988 C 1444.717 365.394, 1440.667 366.679, 1438.479 367.844 C 1436.291 369.010, 1432.880 371.434, 1430.900 373.232 C 1428.920 375.029, 1426.374 378.075, 1425.241 380 C 1424.109 381.925, 1422.211 386.425, 1421.022 390 C 1419.381 394.941, 1418.847 399.044, 1418.797 407.105 C 1418.761 412.938, 1419.302 420.138, 1419.999 423.105 C 1420.696 426.072, 1422.510 431.200, 1424.029 434.500 C 1425.548 437.800, 1428.301 442.093, 1430.146 444.041 C 1431.991 445.988, 1434.815 448.412, 1436.422 449.427 C 1438.030 450.442, 1441.630 451.880, 1444.422 452.624 C 1447.215 453.368, 1451.525 453.976, 1454 453.976 C 1456.475 453.976, 1460.834 453.355, 1463.688 452.595 C 1466.541 451.835, 1470.895 449.763, 1473.364 447.990 C 1475.833 446.217, 1479.278 442.993, 1481.020 440.826 C 1482.762 438.658, 1485.218 434.323, 1486.478 431.192 C 1487.738 428.062, 1489.346 422.220, 1490.051 418.211 C 1491.075 412.394, 1491.089 409.265, 1490.119 402.711 C 1489.451 398.195, 1488.181 392.250, 1487.297 389.500 C 1486.413 386.750, 1484.594 382.758, 1483.256 380.630 C 1481.918 378.501, 1479.486 375.452, 1477.851 373.854 C 1476.216 372.256, 1473.138 369.850, 1471.012 368.508 C 1468.886 367.165, 1464.301 365.605, 1460.823 365.041 C 1457.345 364.477, 1454.050 364.068, 1453.500 364.132 C 1452.950 364.197, 1450.241 364.582, 1447.479 364.988" stroke="none" fill="#040404" fill-rule="evenodd"/></svg>